<mxfile host="app.diagrams.net" agent="Mozilla/5.0 (Windows NT 10.0; Win64; x64; rv:140.0) Gecko/20100101 Firefox/140.0" version="28.0.6">
  <diagram name="Page-1" id="scvr_kUcipml5AVvmpqX">
    <mxGraphModel dx="786" dy="391" grid="1" gridSize="10" guides="1" tooltips="1" connect="1" arrows="1" fold="1" page="1" pageScale="1" pageWidth="850" pageHeight="1100" math="0" shadow="0">
      <root>
        <mxCell id="0" />
        <mxCell id="1" parent="0" />
        <mxCell id="JP7OXktNt0cX2knvMIdn-1" value="" style="rounded=0;whiteSpace=wrap;html=1;strokeColor=#DDDDDD;strokeWidth=0;" vertex="1" parent="1">
          <mxGeometry x="470" y="160" width="610" height="320" as="geometry" />
        </mxCell>
        <mxCell id="JP7OXktNt0cX2knvMIdn-2" value="" style="rounded=0;whiteSpace=wrap;html=1;" vertex="1" parent="1">
          <mxGeometry x="490" y="180" width="110" height="280" as="geometry" />
        </mxCell>
        <mxCell id="JP7OXktNt0cX2knvMIdn-3" value="" style="rounded=0;whiteSpace=wrap;html=1;dashed=1;dashPattern=8 8;fillColor=#f5f5f5;fontColor=#333333;strokeColor=#666666;" vertex="1" parent="1">
          <mxGeometry x="510" y="220" width="70" height="150" as="geometry" />
        </mxCell>
        <mxCell id="JP7OXktNt0cX2knvMIdn-4" value="" style="ellipse;whiteSpace=wrap;html=1;fillColor=#C44601;strokeColor=#C44601;" vertex="1" parent="1">
          <mxGeometry x="520" y="302.5" width="10" height="10" as="geometry" />
        </mxCell>
        <mxCell id="JP7OXktNt0cX2knvMIdn-5" value="" style="ellipse;whiteSpace=wrap;html=1;fillColor=#8BABF1;strokeColor=#8BABF1;" vertex="1" parent="1">
          <mxGeometry x="556.25" y="247.5" width="10" height="10" as="geometry" />
        </mxCell>
        <mxCell id="JP7OXktNt0cX2knvMIdn-6" value="" style="ellipse;whiteSpace=wrap;html=1;fillColor=#8BABF1;strokeColor=#8BABF1;" vertex="1" parent="1">
          <mxGeometry x="556.25" y="267.5" width="10" height="10" as="geometry" />
        </mxCell>
        <mxCell id="JP7OXktNt0cX2knvMIdn-7" value="" style="ellipse;whiteSpace=wrap;html=1;fillColor=#8BABF1;strokeColor=#8BABF1;" vertex="1" parent="1">
          <mxGeometry x="556.25" y="302.5" width="10" height="10" as="geometry" />
        </mxCell>
        <mxCell id="JP7OXktNt0cX2knvMIdn-8" value="" style="ellipse;whiteSpace=wrap;html=1;fillColor=#8BABF1;strokeColor=#8BABF1;" vertex="1" parent="1">
          <mxGeometry x="556.25" y="317.5" width="10" height="10" as="geometry" />
        </mxCell>
        <mxCell id="JP7OXktNt0cX2knvMIdn-9" value="" style="ellipse;whiteSpace=wrap;html=1;fillColor=#8BABF1;strokeColor=#8BABF1;" vertex="1" parent="1">
          <mxGeometry x="556.25" y="337.5" width="10" height="10" as="geometry" />
        </mxCell>
        <mxCell id="JP7OXktNt0cX2knvMIdn-10" value="" style="endArrow=classic;html=1;rounded=0;entryX=0;entryY=1;entryDx=0;entryDy=0;exitX=1;exitY=0.5;exitDx=0;exitDy=0;" edge="1" parent="1" source="JP7OXktNt0cX2knvMIdn-4" target="JP7OXktNt0cX2knvMIdn-5">
          <mxGeometry width="50" height="50" relative="1" as="geometry">
            <mxPoint x="536.25" y="307.5" as="sourcePoint" />
            <mxPoint x="586.25" y="257.5" as="targetPoint" />
          </mxGeometry>
        </mxCell>
        <mxCell id="JP7OXktNt0cX2knvMIdn-11" value="" style="endArrow=classic;html=1;rounded=0;entryX=0;entryY=1;entryDx=0;entryDy=0;exitX=1;exitY=0.5;exitDx=0;exitDy=0;" edge="1" parent="1" source="JP7OXktNt0cX2knvMIdn-4" target="JP7OXktNt0cX2knvMIdn-6">
          <mxGeometry width="50" height="50" relative="1" as="geometry">
            <mxPoint x="536.25" y="308.5" as="sourcePoint" />
            <mxPoint x="557.714466094068" y="276.03553390593186" as="targetPoint" />
          </mxGeometry>
        </mxCell>
        <mxCell id="JP7OXktNt0cX2knvMIdn-12" value="" style="endArrow=classic;html=1;rounded=0;entryX=0;entryY=0.5;entryDx=0;entryDy=0;exitX=1;exitY=0.5;exitDx=0;exitDy=0;" edge="1" parent="1" source="JP7OXktNt0cX2knvMIdn-4">
          <mxGeometry width="50" height="50" relative="1" as="geometry">
            <mxPoint x="536.25" y="307.5" as="sourcePoint" />
            <mxPoint x="556.2499999999995" y="307.5" as="targetPoint" />
          </mxGeometry>
        </mxCell>
        <mxCell id="JP7OXktNt0cX2knvMIdn-13" value="" style="endArrow=classic;html=1;rounded=0;entryX=0;entryY=0.5;entryDx=0;entryDy=0;exitX=1;exitY=0.5;exitDx=0;exitDy=0;" edge="1" parent="1" source="JP7OXktNt0cX2knvMIdn-4">
          <mxGeometry width="50" height="50" relative="1" as="geometry">
            <mxPoint x="536.25" y="307.44000000000005" as="sourcePoint" />
            <mxPoint x="556.2499999999995" y="322.5" as="targetPoint" />
          </mxGeometry>
        </mxCell>
        <mxCell id="JP7OXktNt0cX2knvMIdn-14" value="" style="endArrow=classic;html=1;rounded=0;entryX=0;entryY=0;entryDx=0;entryDy=0;exitX=1;exitY=0.5;exitDx=0;exitDy=0;" edge="1" parent="1" source="JP7OXktNt0cX2knvMIdn-4">
          <mxGeometry width="50" height="50" relative="1" as="geometry">
            <mxPoint x="536.25" y="327.5" as="sourcePoint" />
            <mxPoint x="557.714466094068" y="338.96446609406814" as="targetPoint" />
          </mxGeometry>
        </mxCell>
        <mxCell id="JP7OXktNt0cX2knvMIdn-15" value="" style="rounded=0;whiteSpace=wrap;html=1;" vertex="1" parent="1">
          <mxGeometry x="630" y="180" width="110" height="280" as="geometry" />
        </mxCell>
        <mxCell id="JP7OXktNt0cX2knvMIdn-16" value="" style="rounded=0;whiteSpace=wrap;html=1;dashed=1;dashPattern=8 8;fillColor=#f5f5f5;fontColor=#333333;strokeColor=#666666;" vertex="1" parent="1">
          <mxGeometry x="650" y="190" width="70" height="50" as="geometry" />
        </mxCell>
        <mxCell id="JP7OXktNt0cX2knvMIdn-17" value="" style="ellipse;whiteSpace=wrap;html=1;fillColor=#8BABF1;strokeColor=#8BABF1;" vertex="1" parent="1">
          <mxGeometry x="692.5" y="200" width="10" height="10" as="geometry" />
        </mxCell>
        <mxCell id="JP7OXktNt0cX2knvMIdn-18" value="" style="ellipse;whiteSpace=wrap;html=1;fillColor=#8BABF1;strokeColor=#8BABF1;" vertex="1" parent="1">
          <mxGeometry x="692.5" y="220" width="10" height="10" as="geometry" />
        </mxCell>
        <mxCell id="JP7OXktNt0cX2knvMIdn-19" value="" style="ellipse;whiteSpace=wrap;html=1;fillColor=#054FB9;strokeColor=#054FB9;" vertex="1" parent="1">
          <mxGeometry x="662.5" y="210" width="10" height="10" as="geometry" />
        </mxCell>
        <mxCell id="JP7OXktNt0cX2knvMIdn-20" value="" style="endArrow=classic;html=1;rounded=0;entryX=0;entryY=0.5;entryDx=0;entryDy=0;exitX=1;exitY=0.5;exitDx=0;exitDy=0;" edge="1" parent="1" source="JP7OXktNt0cX2knvMIdn-19">
          <mxGeometry width="50" height="50" relative="1" as="geometry">
            <mxPoint x="680" y="225" as="sourcePoint" />
            <mxPoint x="692.4999999999995" y="205" as="targetPoint" />
          </mxGeometry>
        </mxCell>
        <mxCell id="JP7OXktNt0cX2knvMIdn-21" value="" style="endArrow=classic;html=1;rounded=0;entryX=0;entryY=0.5;entryDx=0;entryDy=0;exitX=1;exitY=0.5;exitDx=0;exitDy=0;" edge="1" parent="1" source="JP7OXktNt0cX2knvMIdn-19" target="JP7OXktNt0cX2knvMIdn-18">
          <mxGeometry width="50" height="50" relative="1" as="geometry">
            <mxPoint x="672.5" y="205" as="sourcePoint" />
            <mxPoint x="693.964466094068" y="221.46446609406814" as="targetPoint" />
          </mxGeometry>
        </mxCell>
        <mxCell id="JP7OXktNt0cX2knvMIdn-22" value="" style="rounded=0;whiteSpace=wrap;html=1;dashed=1;dashPattern=8 8;fillColor=#f5f5f5;fontColor=#333333;strokeColor=#666666;" vertex="1" parent="1">
          <mxGeometry x="650" y="250" width="70" height="45" as="geometry" />
        </mxCell>
        <mxCell id="JP7OXktNt0cX2knvMIdn-23" value="" style="ellipse;whiteSpace=wrap;html=1;fillColor=#C44601;strokeColor=#C44601;" vertex="1" parent="1">
          <mxGeometry x="662.5" y="265" width="10" height="10" as="geometry" />
        </mxCell>
        <mxCell id="JP7OXktNt0cX2knvMIdn-24" value="" style="ellipse;whiteSpace=wrap;html=1;fillColor=#8BABF1;strokeColor=#8BABF1;" vertex="1" parent="1">
          <mxGeometry x="692.5" y="260" width="10" height="10" as="geometry" />
        </mxCell>
        <mxCell id="JP7OXktNt0cX2knvMIdn-25" value="" style="ellipse;whiteSpace=wrap;html=1;fillColor=#8BABF1;strokeColor=#8BABF1;" vertex="1" parent="1">
          <mxGeometry x="692.5" y="275" width="10" height="10" as="geometry" />
        </mxCell>
        <mxCell id="JP7OXktNt0cX2knvMIdn-26" value="" style="endArrow=classic;html=1;rounded=0;entryX=0;entryY=0.5;entryDx=0;entryDy=0;exitX=1;exitY=0.5;exitDx=0;exitDy=0;" edge="1" parent="1" source="JP7OXktNt0cX2knvMIdn-23">
          <mxGeometry width="50" height="50" relative="1" as="geometry">
            <mxPoint x="672.5" y="265" as="sourcePoint" />
            <mxPoint x="692.4999999999995" y="265" as="targetPoint" />
          </mxGeometry>
        </mxCell>
        <mxCell id="JP7OXktNt0cX2knvMIdn-27" value="" style="endArrow=classic;html=1;rounded=0;entryX=0;entryY=0.5;entryDx=0;entryDy=0;exitX=1;exitY=0.5;exitDx=0;exitDy=0;" edge="1" parent="1" source="JP7OXktNt0cX2knvMIdn-23">
          <mxGeometry width="50" height="50" relative="1" as="geometry">
            <mxPoint x="672.5" y="264.94000000000005" as="sourcePoint" />
            <mxPoint x="692.4999999999995" y="280" as="targetPoint" />
          </mxGeometry>
        </mxCell>
        <mxCell id="JP7OXktNt0cX2knvMIdn-28" value="" style="rounded=0;whiteSpace=wrap;html=1;dashed=1;dashPattern=8 8;fillColor=#f5f5f5;fontColor=#333333;strokeColor=#666666;" vertex="1" parent="1">
          <mxGeometry x="650" y="317.5" width="70" height="40" as="geometry" />
        </mxCell>
        <mxCell id="JP7OXktNt0cX2knvMIdn-29" value="" style="ellipse;whiteSpace=wrap;html=1;fillColor=#8BABF1;strokeColor=#8BABF1;" vertex="1" parent="1">
          <mxGeometry x="692.5" y="337.5" width="10" height="10" as="geometry" />
        </mxCell>
        <mxCell id="JP7OXktNt0cX2knvMIdn-30" value="" style="ellipse;whiteSpace=wrap;html=1;fillColor=#054FB9;strokeColor=#054FB9;" vertex="1" parent="1">
          <mxGeometry x="662.5" y="337.5" width="10" height="10" as="geometry" />
        </mxCell>
        <mxCell id="JP7OXktNt0cX2knvMIdn-31" value="" style="endArrow=classic;html=1;rounded=0;entryX=0;entryY=0.5;entryDx=0;entryDy=0;exitX=1;exitY=0.5;exitDx=0;exitDy=0;" edge="1" parent="1" source="JP7OXktNt0cX2knvMIdn-30">
          <mxGeometry width="50" height="50" relative="1" as="geometry">
            <mxPoint x="672.5" y="357.5" as="sourcePoint" />
            <mxPoint x="692.4999999999995" y="342.5" as="targetPoint" />
          </mxGeometry>
        </mxCell>
        <mxCell id="JP7OXktNt0cX2knvMIdn-32" value="" style="ellipse;whiteSpace=wrap;html=1;" vertex="1" parent="1">
          <mxGeometry x="662.5" y="302.5" width="10" height="10" as="geometry" />
        </mxCell>
        <mxCell id="JP7OXktNt0cX2knvMIdn-33" value="" style="endArrow=none;html=1;rounded=0;exitX=0;exitY=1;exitDx=0;exitDy=0;entryX=1;entryY=0;entryDx=0;entryDy=0;" edge="1" parent="1" source="JP7OXktNt0cX2knvMIdn-32" target="JP7OXktNt0cX2knvMIdn-32">
          <mxGeometry width="50" height="50" relative="1" as="geometry">
            <mxPoint x="672.5" y="327.5" as="sourcePoint" />
            <mxPoint x="722.5" y="277.5" as="targetPoint" />
          </mxGeometry>
        </mxCell>
        <mxCell id="JP7OXktNt0cX2knvMIdn-34" value="" style="endArrow=none;html=1;rounded=0;exitX=1;exitY=1;exitDx=0;exitDy=0;entryX=0;entryY=0;entryDx=0;entryDy=0;" edge="1" parent="1" source="JP7OXktNt0cX2knvMIdn-32" target="JP7OXktNt0cX2knvMIdn-32">
          <mxGeometry width="50" height="50" relative="1" as="geometry">
            <mxPoint x="672.5" y="277.5" as="sourcePoint" />
            <mxPoint x="722.5" y="227.5" as="targetPoint" />
          </mxGeometry>
        </mxCell>
        <mxCell id="JP7OXktNt0cX2knvMIdn-35" value="" style="rounded=0;whiteSpace=wrap;html=1;dashed=1;dashPattern=8 8;fillColor=#f5f5f5;fontColor=#333333;strokeColor=#666666;" vertex="1" parent="1">
          <mxGeometry x="650" y="367.5" width="70" height="60" as="geometry" />
        </mxCell>
        <mxCell id="JP7OXktNt0cX2knvMIdn-36" value="" style="ellipse;whiteSpace=wrap;html=1;fillColor=#C44601;strokeColor=#C44601;" vertex="1" parent="1">
          <mxGeometry x="662.5" y="392.5" width="10" height="10" as="geometry" />
        </mxCell>
        <mxCell id="JP7OXktNt0cX2knvMIdn-37" value="" style="ellipse;whiteSpace=wrap;html=1;fillColor=#8BABF1;strokeColor=#8BABF1;" vertex="1" parent="1">
          <mxGeometry x="692.5" y="377.5" width="10" height="10" as="geometry" />
        </mxCell>
        <mxCell id="JP7OXktNt0cX2knvMIdn-38" value="" style="ellipse;whiteSpace=wrap;html=1;fillColor=#8BABF1;strokeColor=#8BABF1;" vertex="1" parent="1">
          <mxGeometry x="692.5" y="392.5" width="10" height="10" as="geometry" />
        </mxCell>
        <mxCell id="JP7OXktNt0cX2knvMIdn-39" value="" style="endArrow=classic;html=1;rounded=0;entryX=0;entryY=1;entryDx=0;entryDy=0;exitX=1;exitY=0.5;exitDx=0;exitDy=0;" edge="1" parent="1" source="JP7OXktNt0cX2knvMIdn-36" target="JP7OXktNt0cX2knvMIdn-37">
          <mxGeometry width="50" height="50" relative="1" as="geometry">
            <mxPoint x="672.5" y="382.5" as="sourcePoint" />
            <mxPoint x="692.4999999999995" y="382.5" as="targetPoint" />
          </mxGeometry>
        </mxCell>
        <mxCell id="JP7OXktNt0cX2knvMIdn-40" value="" style="endArrow=classic;html=1;rounded=0;entryX=0;entryY=0.5;entryDx=0;entryDy=0;exitX=1;exitY=0.5;exitDx=0;exitDy=0;" edge="1" parent="1" source="JP7OXktNt0cX2knvMIdn-36">
          <mxGeometry width="50" height="50" relative="1" as="geometry">
            <mxPoint x="672.5" y="382.44000000000005" as="sourcePoint" />
            <mxPoint x="692.4999999999995" y="397.5" as="targetPoint" />
          </mxGeometry>
        </mxCell>
        <mxCell id="JP7OXktNt0cX2knvMIdn-41" value="" style="ellipse;whiteSpace=wrap;html=1;fillColor=#8BABF1;strokeColor=#8BABF1;" vertex="1" parent="1">
          <mxGeometry x="692.5" y="407.5" width="10" height="10" as="geometry" />
        </mxCell>
        <mxCell id="JP7OXktNt0cX2knvMIdn-42" value="" style="endArrow=classic;html=1;rounded=0;entryX=0;entryY=0;entryDx=0;entryDy=0;exitX=1;exitY=0.5;exitDx=0;exitDy=0;" edge="1" parent="1" source="JP7OXktNt0cX2knvMIdn-36" target="JP7OXktNt0cX2knvMIdn-41">
          <mxGeometry width="50" height="50" relative="1" as="geometry">
            <mxPoint x="683" y="397.5" as="sourcePoint" />
            <mxPoint x="702.4999999999995" y="407.5" as="targetPoint" />
          </mxGeometry>
        </mxCell>
        <mxCell id="JP7OXktNt0cX2knvMIdn-43" value="" style="rounded=0;whiteSpace=wrap;html=1;" vertex="1" parent="1">
          <mxGeometry x="770" y="180" width="110" height="280" as="geometry" />
        </mxCell>
        <mxCell id="JP7OXktNt0cX2knvMIdn-44" value="" style="rounded=0;whiteSpace=wrap;html=1;dashed=1;dashPattern=8 8;fillColor=#f5f5f5;fontColor=#333333;strokeColor=#666666;" vertex="1" parent="1">
          <mxGeometry x="790" y="275" width="70" height="50" as="geometry" />
        </mxCell>
        <mxCell id="JP7OXktNt0cX2knvMIdn-45" value="" style="ellipse;whiteSpace=wrap;html=1;fillColor=#C44601;strokeColor=#C44601;" vertex="1" parent="1">
          <mxGeometry x="802.5" y="287.5" width="10" height="10" as="geometry" />
        </mxCell>
        <mxCell id="JP7OXktNt0cX2knvMIdn-46" value="" style="ellipse;whiteSpace=wrap;html=1;fillColor=#8BABF1;strokeColor=#8BABF1;" vertex="1" parent="1">
          <mxGeometry x="832.5" y="280" width="10" height="10" as="geometry" />
        </mxCell>
        <mxCell id="JP7OXktNt0cX2knvMIdn-47" value="" style="ellipse;whiteSpace=wrap;html=1;fillColor=#8BABF1;strokeColor=#8BABF1;" vertex="1" parent="1">
          <mxGeometry x="832.5" y="295" width="10" height="10" as="geometry" />
        </mxCell>
        <mxCell id="JP7OXktNt0cX2knvMIdn-48" value="" style="endArrow=classic;html=1;rounded=0;entryX=0;entryY=0.5;entryDx=0;entryDy=0;exitX=1;exitY=0.5;exitDx=0;exitDy=0;" edge="1" parent="1" source="JP7OXktNt0cX2knvMIdn-45">
          <mxGeometry width="50" height="50" relative="1" as="geometry">
            <mxPoint x="812.5" y="285" as="sourcePoint" />
            <mxPoint x="832.4999999999995" y="285" as="targetPoint" />
          </mxGeometry>
        </mxCell>
        <mxCell id="JP7OXktNt0cX2knvMIdn-49" value="" style="endArrow=classic;html=1;rounded=0;entryX=0;entryY=0.5;entryDx=0;entryDy=0;exitX=1;exitY=0.5;exitDx=0;exitDy=0;" edge="1" parent="1" source="JP7OXktNt0cX2knvMIdn-45">
          <mxGeometry width="50" height="50" relative="1" as="geometry">
            <mxPoint x="812.5" y="284.94000000000005" as="sourcePoint" />
            <mxPoint x="832.4999999999995" y="300" as="targetPoint" />
          </mxGeometry>
        </mxCell>
        <mxCell id="JP7OXktNt0cX2knvMIdn-50" value="" style="rounded=0;whiteSpace=wrap;html=1;dashed=1;dashPattern=8 8;fillColor=#f5f5f5;fontColor=#333333;strokeColor=#666666;" vertex="1" parent="1">
          <mxGeometry x="790" y="352.5" width="70" height="60" as="geometry" />
        </mxCell>
        <mxCell id="JP7OXktNt0cX2knvMIdn-51" value="" style="ellipse;whiteSpace=wrap;html=1;fillColor=#C44601;strokeColor=#C44601;" vertex="1" parent="1">
          <mxGeometry x="802.5" y="371.25" width="10" height="10" as="geometry" />
        </mxCell>
        <mxCell id="JP7OXktNt0cX2knvMIdn-52" value="" style="ellipse;whiteSpace=wrap;html=1;fillColor=#8BABF1;strokeColor=#8BABF1;" vertex="1" parent="1">
          <mxGeometry x="832.5" y="361.25" width="10" height="10" as="geometry" />
        </mxCell>
        <mxCell id="JP7OXktNt0cX2knvMIdn-53" value="" style="endArrow=classic;html=1;rounded=0;entryX=0;entryY=0.5;entryDx=0;entryDy=0;exitX=1;exitY=0.5;exitDx=0;exitDy=0;" edge="1" parent="1" source="JP7OXktNt0cX2knvMIdn-51">
          <mxGeometry width="50" height="50" relative="1" as="geometry">
            <mxPoint x="812.5" y="351.19000000000005" as="sourcePoint" />
            <mxPoint x="832.4999999999995" y="366.25" as="targetPoint" />
          </mxGeometry>
        </mxCell>
        <mxCell id="JP7OXktNt0cX2knvMIdn-54" value="" style="ellipse;whiteSpace=wrap;html=1;fillColor=#8BABF1;strokeColor=#8BABF1;" vertex="1" parent="1">
          <mxGeometry x="832.5" y="378.75" width="10" height="10" as="geometry" />
        </mxCell>
        <mxCell id="JP7OXktNt0cX2knvMIdn-55" value="" style="endArrow=classic;html=1;rounded=0;entryX=0;entryY=0.5;entryDx=0;entryDy=0;exitX=1;exitY=0.5;exitDx=0;exitDy=0;" edge="1" parent="1" source="JP7OXktNt0cX2knvMIdn-51" target="JP7OXktNt0cX2knvMIdn-54">
          <mxGeometry width="50" height="50" relative="1" as="geometry">
            <mxPoint x="823" y="366.25" as="sourcePoint" />
            <mxPoint x="842.4999999999995" y="376.25" as="targetPoint" />
          </mxGeometry>
        </mxCell>
        <mxCell id="JP7OXktNt0cX2knvMIdn-56" value="" style="rounded=0;whiteSpace=wrap;html=1;dashed=1;dashPattern=8 8;fillColor=#f5f5f5;fontColor=#333333;strokeColor=#666666;" vertex="1" parent="1">
          <mxGeometry x="790" y="190" width="70" height="70" as="geometry" />
        </mxCell>
        <mxCell id="JP7OXktNt0cX2knvMIdn-57" value="" style="ellipse;whiteSpace=wrap;html=1;fillColor=#8BABF1;strokeColor=#8BABF1;" vertex="1" parent="1">
          <mxGeometry x="832.5" y="200" width="10" height="10" as="geometry" />
        </mxCell>
        <mxCell id="JP7OXktNt0cX2knvMIdn-58" value="" style="ellipse;whiteSpace=wrap;html=1;fillColor=#8BABF1;strokeColor=#8BABF1;" vertex="1" parent="1">
          <mxGeometry x="832.5" y="215" width="10" height="10" as="geometry" />
        </mxCell>
        <mxCell id="JP7OXktNt0cX2knvMIdn-59" value="" style="ellipse;whiteSpace=wrap;html=1;fillColor=#8BABF1;strokeColor=#8BABF1;" vertex="1" parent="1">
          <mxGeometry x="832.5" y="230" width="10" height="10" as="geometry" />
        </mxCell>
        <mxCell id="JP7OXktNt0cX2knvMIdn-60" value="" style="ellipse;whiteSpace=wrap;html=1;fillColor=#054FB9;strokeColor=#054FB9;" vertex="1" parent="1">
          <mxGeometry x="802.5" y="220" width="10" height="10" as="geometry" />
        </mxCell>
        <mxCell id="JP7OXktNt0cX2knvMIdn-61" value="" style="endArrow=classic;html=1;rounded=0;entryX=0;entryY=0.5;entryDx=0;entryDy=0;exitX=1;exitY=0.5;exitDx=0;exitDy=0;" edge="1" parent="1" source="JP7OXktNt0cX2knvMIdn-60">
          <mxGeometry width="50" height="50" relative="1" as="geometry">
            <mxPoint x="812.5" y="220" as="sourcePoint" />
            <mxPoint x="832.4999999999995" y="205" as="targetPoint" />
          </mxGeometry>
        </mxCell>
        <mxCell id="JP7OXktNt0cX2knvMIdn-62" value="" style="endArrow=classic;html=1;rounded=0;entryX=0;entryY=0.5;entryDx=0;entryDy=0;exitX=1;exitY=0.5;exitDx=0;exitDy=0;" edge="1" parent="1" source="JP7OXktNt0cX2knvMIdn-60">
          <mxGeometry width="50" height="50" relative="1" as="geometry">
            <mxPoint x="820" y="240" as="sourcePoint" />
            <mxPoint x="832.4999999999995" y="220" as="targetPoint" />
          </mxGeometry>
        </mxCell>
        <mxCell id="JP7OXktNt0cX2knvMIdn-63" value="" style="endArrow=classic;html=1;rounded=0;entryX=0;entryY=0.5;entryDx=0;entryDy=0;exitX=1;exitY=0.5;exitDx=0;exitDy=0;" edge="1" parent="1" source="JP7OXktNt0cX2knvMIdn-60" target="JP7OXktNt0cX2knvMIdn-59">
          <mxGeometry width="50" height="50" relative="1" as="geometry">
            <mxPoint x="812.5" y="220" as="sourcePoint" />
            <mxPoint x="833.964466094068" y="236.46446609406814" as="targetPoint" />
          </mxGeometry>
        </mxCell>
        <mxCell id="JP7OXktNt0cX2knvMIdn-64" value="" style="endArrow=none;dashed=1;html=1;dashPattern=1 1;strokeWidth=2;rounded=0;exitX=1;exitY=0.5;exitDx=0;exitDy=0;entryX=0;entryY=0.5;entryDx=0;entryDy=0;" edge="1" parent="1" source="JP7OXktNt0cX2knvMIdn-24" target="JP7OXktNt0cX2knvMIdn-60">
          <mxGeometry width="50" height="50" relative="1" as="geometry">
            <mxPoint x="770" y="270" as="sourcePoint" />
            <mxPoint x="820" y="220" as="targetPoint" />
          </mxGeometry>
        </mxCell>
        <mxCell id="JP7OXktNt0cX2knvMIdn-65" value="" style="endArrow=none;dashed=1;html=1;dashPattern=1 1;strokeWidth=2;rounded=0;exitX=1;exitY=0.5;exitDx=0;exitDy=0;entryX=0;entryY=0.5;entryDx=0;entryDy=0;" edge="1" parent="1" source="JP7OXktNt0cX2knvMIdn-25" target="JP7OXktNt0cX2knvMIdn-45">
          <mxGeometry width="50" height="50" relative="1" as="geometry">
            <mxPoint x="713" y="275" as="sourcePoint" />
            <mxPoint x="813" y="233" as="targetPoint" />
          </mxGeometry>
        </mxCell>
        <mxCell id="JP7OXktNt0cX2knvMIdn-66" value="" style="endArrow=none;dashed=1;html=1;dashPattern=1 1;strokeWidth=2;rounded=0;exitX=1;exitY=0.5;exitDx=0;exitDy=0;entryX=0;entryY=0.5;entryDx=0;entryDy=0;" edge="1" parent="1" source="JP7OXktNt0cX2knvMIdn-38" target="JP7OXktNt0cX2knvMIdn-51">
          <mxGeometry width="50" height="50" relative="1" as="geometry">
            <mxPoint x="702.5" y="415" as="sourcePoint" />
            <mxPoint x="802.5" y="415" as="targetPoint" />
          </mxGeometry>
        </mxCell>
        <mxCell id="JP7OXktNt0cX2knvMIdn-67" value="" style="ellipse;whiteSpace=wrap;html=1;" vertex="1" parent="1">
          <mxGeometry x="802.5" y="420" width="10" height="10" as="geometry" />
        </mxCell>
        <mxCell id="JP7OXktNt0cX2knvMIdn-68" value="" style="endArrow=none;html=1;rounded=0;exitX=0;exitY=1;exitDx=0;exitDy=0;entryX=1;entryY=0;entryDx=0;entryDy=0;" edge="1" parent="1" source="JP7OXktNt0cX2knvMIdn-67" target="JP7OXktNt0cX2knvMIdn-67">
          <mxGeometry width="50" height="50" relative="1" as="geometry">
            <mxPoint x="812.5" y="445" as="sourcePoint" />
            <mxPoint x="862.5" y="395" as="targetPoint" />
          </mxGeometry>
        </mxCell>
        <mxCell id="JP7OXktNt0cX2knvMIdn-69" value="" style="endArrow=none;html=1;rounded=0;exitX=1;exitY=1;exitDx=0;exitDy=0;entryX=0;entryY=0;entryDx=0;entryDy=0;" edge="1" parent="1" source="JP7OXktNt0cX2knvMIdn-67" target="JP7OXktNt0cX2knvMIdn-67">
          <mxGeometry width="50" height="50" relative="1" as="geometry">
            <mxPoint x="812.5" y="395" as="sourcePoint" />
            <mxPoint x="862.5" y="345" as="targetPoint" />
          </mxGeometry>
        </mxCell>
        <mxCell id="JP7OXktNt0cX2knvMIdn-70" value="" style="ellipse;whiteSpace=wrap;html=1;fillColor=#054FB9;strokeColor=#054FB9;" vertex="1" parent="1">
          <mxGeometry x="802.5" y="332.5" width="10" height="10" as="geometry" />
        </mxCell>
        <mxCell id="JP7OXktNt0cX2knvMIdn-71" value="" style="endArrow=none;dashed=1;html=1;dashPattern=1 1;strokeWidth=2;rounded=0;exitX=1;exitY=0.5;exitDx=0;exitDy=0;entryX=0;entryY=0.5;entryDx=0;entryDy=0;" edge="1" parent="1" source="JP7OXktNt0cX2knvMIdn-37" target="JP7OXktNt0cX2knvMIdn-70">
          <mxGeometry width="50" height="50" relative="1" as="geometry">
            <mxPoint x="702.5" y="384.86" as="sourcePoint" />
            <mxPoint x="790" y="360" as="targetPoint" />
          </mxGeometry>
        </mxCell>
        <mxCell id="JP7OXktNt0cX2knvMIdn-72" value="" style="endArrow=none;dashed=1;html=1;dashPattern=1 1;strokeWidth=2;rounded=0;exitX=1;exitY=0.5;exitDx=0;exitDy=0;entryX=0;entryY=0.5;entryDx=0;entryDy=0;" edge="1" parent="1" source="JP7OXktNt0cX2knvMIdn-5" target="JP7OXktNt0cX2knvMIdn-19">
          <mxGeometry width="50" height="50" relative="1" as="geometry">
            <mxPoint x="566.25" y="252.29999999999995" as="sourcePoint" />
            <mxPoint x="666.25" y="252.29999999999995" as="targetPoint" />
          </mxGeometry>
        </mxCell>
        <mxCell id="JP7OXktNt0cX2knvMIdn-73" value="" style="endArrow=none;dashed=1;html=1;dashPattern=1 1;strokeWidth=2;rounded=0;exitX=1;exitY=0.5;exitDx=0;exitDy=0;entryX=0;entryY=0.5;entryDx=0;entryDy=0;" edge="1" parent="1" source="JP7OXktNt0cX2knvMIdn-6" target="JP7OXktNt0cX2knvMIdn-23">
          <mxGeometry width="50" height="50" relative="1" as="geometry">
            <mxPoint x="566.25" y="270" as="sourcePoint" />
            <mxPoint x="663.25" y="242" as="targetPoint" />
          </mxGeometry>
        </mxCell>
        <mxCell id="JP7OXktNt0cX2knvMIdn-74" value="" style="endArrow=none;dashed=1;html=1;dashPattern=1 1;strokeWidth=2;rounded=0;exitX=1;exitY=0.5;exitDx=0;exitDy=0;entryX=0;entryY=0.5;entryDx=0;entryDy=0;" edge="1" parent="1" source="JP7OXktNt0cX2knvMIdn-7" target="JP7OXktNt0cX2knvMIdn-32">
          <mxGeometry width="50" height="50" relative="1" as="geometry">
            <mxPoint x="566.25" y="308" as="sourcePoint" />
            <mxPoint x="663.25" y="305" as="targetPoint" />
          </mxGeometry>
        </mxCell>
        <mxCell id="JP7OXktNt0cX2knvMIdn-75" value="" style="endArrow=none;dashed=1;html=1;dashPattern=1 1;strokeWidth=2;rounded=0;exitX=1;exitY=0.5;exitDx=0;exitDy=0;entryX=0;entryY=0.5;entryDx=0;entryDy=0;" edge="1" parent="1" source="JP7OXktNt0cX2knvMIdn-8" target="JP7OXktNt0cX2knvMIdn-30">
          <mxGeometry width="50" height="50" relative="1" as="geometry">
            <mxPoint x="566.25" y="322.4200000000001" as="sourcePoint" />
            <mxPoint x="663.25" y="322.4200000000001" as="targetPoint" />
          </mxGeometry>
        </mxCell>
        <mxCell id="JP7OXktNt0cX2knvMIdn-76" value="" style="endArrow=none;dashed=1;html=1;dashPattern=1 1;strokeWidth=2;rounded=0;exitX=1;exitY=0.5;exitDx=0;exitDy=0;entryX=0;entryY=0.5;entryDx=0;entryDy=0;" edge="1" parent="1" source="JP7OXktNt0cX2knvMIdn-9" target="JP7OXktNt0cX2knvMIdn-36">
          <mxGeometry width="50" height="50" relative="1" as="geometry">
            <mxPoint x="566.25" y="340" as="sourcePoint" />
            <mxPoint x="663.25" y="352" as="targetPoint" />
          </mxGeometry>
        </mxCell>
        <mxCell id="JP7OXktNt0cX2knvMIdn-77" value="Generation 1" style="text;html=1;align=center;verticalAlign=middle;whiteSpace=wrap;rounded=0;" vertex="1" parent="1">
          <mxGeometry x="500" y="430" width="90" height="30" as="geometry" />
        </mxCell>
        <mxCell id="JP7OXktNt0cX2knvMIdn-78" value="Generation 2" style="text;html=1;align=center;verticalAlign=middle;whiteSpace=wrap;rounded=0;" vertex="1" parent="1">
          <mxGeometry x="640" y="430" width="90" height="30" as="geometry" />
        </mxCell>
        <mxCell id="JP7OXktNt0cX2knvMIdn-79" value="Generation 3" style="text;html=1;align=center;verticalAlign=middle;whiteSpace=wrap;rounded=0;" vertex="1" parent="1">
          <mxGeometry x="780" y="430" width="90" height="30" as="geometry" />
        </mxCell>
        <mxCell id="JP7OXktNt0cX2knvMIdn-80" value="" style="ellipse;whiteSpace=wrap;html=1;fillColor=#C44601;strokeColor=#C44601;" vertex="1" parent="1">
          <mxGeometry x="910" y="230" width="10" height="10" as="geometry" />
        </mxCell>
        <mxCell id="JP7OXktNt0cX2knvMIdn-81" value="&lt;div align=&quot;left&quot;&gt;Infectious nymph&lt;/div&gt;" style="text;html=1;align=left;verticalAlign=middle;whiteSpace=wrap;rounded=0;" vertex="1" parent="1">
          <mxGeometry x="940" y="220" width="100" height="30" as="geometry" />
        </mxCell>
        <mxCell id="JP7OXktNt0cX2knvMIdn-82" value="" style="ellipse;whiteSpace=wrap;html=1;fillColor=#054FB9;strokeColor=#054FB9;" vertex="1" parent="1">
          <mxGeometry x="910" y="250" width="10" height="10" as="geometry" />
        </mxCell>
        <mxCell id="JP7OXktNt0cX2knvMIdn-83" value="&lt;div align=&quot;left&quot;&gt;Non-infectious nymph&lt;/div&gt;" style="text;html=1;align=left;verticalAlign=middle;whiteSpace=wrap;rounded=0;" vertex="1" parent="1">
          <mxGeometry x="940" y="240" width="120" height="30" as="geometry" />
        </mxCell>
        <mxCell id="JP7OXktNt0cX2knvMIdn-84" value="" style="ellipse;whiteSpace=wrap;html=1;fillColor=#8BABF1;strokeColor=#8BABF1;" vertex="1" parent="1">
          <mxGeometry x="910" y="270" width="10" height="10" as="geometry" />
        </mxCell>
        <mxCell id="JP7OXktNt0cX2knvMIdn-85" value="Larvae" style="text;html=1;align=left;verticalAlign=middle;whiteSpace=wrap;rounded=0;" vertex="1" parent="1">
          <mxGeometry x="940" y="260" width="120" height="30" as="geometry" />
        </mxCell>
        <mxCell id="JP7OXktNt0cX2knvMIdn-86" value="" style="endArrow=none;dashed=1;html=1;dashPattern=1 1;strokeWidth=2;rounded=0;" edge="1" parent="1">
          <mxGeometry width="50" height="50" relative="1" as="geometry">
            <mxPoint x="900" y="314.95000000000005" as="sourcePoint" />
            <mxPoint x="930" y="314.95000000000005" as="targetPoint" />
          </mxGeometry>
        </mxCell>
        <mxCell id="JP7OXktNt0cX2knvMIdn-87" value="&lt;div&gt;Larvae becomes&amp;nbsp;&lt;/div&gt;&lt;div&gt;nymph&lt;/div&gt;" style="text;html=1;align=left;verticalAlign=middle;whiteSpace=wrap;rounded=0;" vertex="1" parent="1">
          <mxGeometry x="940" y="307.5" width="130" height="30" as="geometry" />
        </mxCell>
        <mxCell id="JP7OXktNt0cX2knvMIdn-88" value="" style="endArrow=classic;html=1;rounded=0;" edge="1" parent="1">
          <mxGeometry width="50" height="50" relative="1" as="geometry">
            <mxPoint x="900" y="357.5" as="sourcePoint" />
            <mxPoint x="930" y="357.5" as="targetPoint" />
            <Array as="points" />
          </mxGeometry>
        </mxCell>
        <mxCell id="JP7OXktNt0cX2knvMIdn-89" value="Close enough for&amp;nbsp;&amp;nbsp; transmission to occur" style="text;html=1;align=left;verticalAlign=middle;whiteSpace=wrap;rounded=0;" vertex="1" parent="1">
          <mxGeometry x="940" y="342.5" width="130" height="40" as="geometry" />
        </mxCell>
        <mxCell id="JP7OXktNt0cX2knvMIdn-90" value="" style="ellipse;whiteSpace=wrap;html=1;" vertex="1" parent="1">
          <mxGeometry x="910" y="290" width="10" height="10" as="geometry" />
        </mxCell>
        <mxCell id="JP7OXktNt0cX2knvMIdn-91" value="" style="endArrow=none;html=1;rounded=0;exitX=0;exitY=1;exitDx=0;exitDy=0;entryX=1;entryY=0;entryDx=0;entryDy=0;" edge="1" parent="1" source="JP7OXktNt0cX2knvMIdn-90" target="JP7OXktNt0cX2knvMIdn-90">
          <mxGeometry width="50" height="50" relative="1" as="geometry">
            <mxPoint x="920" y="315" as="sourcePoint" />
            <mxPoint x="970" y="265" as="targetPoint" />
          </mxGeometry>
        </mxCell>
        <mxCell id="JP7OXktNt0cX2knvMIdn-92" value="" style="endArrow=none;html=1;rounded=0;exitX=1;exitY=1;exitDx=0;exitDy=0;entryX=0;entryY=0;entryDx=0;entryDy=0;" edge="1" parent="1" source="JP7OXktNt0cX2knvMIdn-90" target="JP7OXktNt0cX2knvMIdn-90">
          <mxGeometry width="50" height="50" relative="1" as="geometry">
            <mxPoint x="920" y="265" as="sourcePoint" />
            <mxPoint x="970" y="215" as="targetPoint" />
          </mxGeometry>
        </mxCell>
        <mxCell id="JP7OXktNt0cX2knvMIdn-93" value="&lt;div&gt;Tick death&lt;/div&gt;" style="text;html=1;align=left;verticalAlign=middle;whiteSpace=wrap;rounded=0;" vertex="1" parent="1">
          <mxGeometry x="940" y="280" width="120" height="30" as="geometry" />
        </mxCell>
        <mxCell id="JP7OXktNt0cX2knvMIdn-94" value="" style="rounded=0;whiteSpace=wrap;html=1;dashed=1;dashPattern=8 8;fillColor=#f5f5f5;fontColor=#333333;strokeColor=#666666;" vertex="1" parent="1">
          <mxGeometry x="900" y="390" width="30" height="30" as="geometry" />
        </mxCell>
        <mxCell id="JP7OXktNt0cX2knvMIdn-95" value="&lt;div&gt;Coincident&amp;nbsp;&lt;/div&gt;&lt;div&gt;co-aggregation&lt;/div&gt;" style="text;html=1;align=left;verticalAlign=middle;whiteSpace=wrap;rounded=0;" vertex="1" parent="1">
          <mxGeometry x="940" y="387.5" width="130" height="30" as="geometry" />
        </mxCell>
        <mxCell id="JP7OXktNt0cX2knvMIdn-96" value="" style="ellipse;whiteSpace=wrap;html=1;fillColor=#8BABF1;strokeColor=#8BABF1;" vertex="1" parent="1">
          <mxGeometry x="556.25" y="230" width="10" height="10" as="geometry" />
        </mxCell>
        <mxCell id="JP7OXktNt0cX2knvMIdn-97" value="" style="ellipse;whiteSpace=wrap;html=1;fillColor=#8BABF1;strokeColor=#8BABF1;" vertex="1" parent="1">
          <mxGeometry x="832.5" y="310" width="10" height="10" as="geometry" />
        </mxCell>
        <mxCell id="JP7OXktNt0cX2knvMIdn-98" value="" style="ellipse;whiteSpace=wrap;html=1;fillColor=#8BABF1;strokeColor=#8BABF1;" vertex="1" parent="1">
          <mxGeometry x="832.5" y="393.75" width="10" height="10" as="geometry" />
        </mxCell>
        <mxCell id="JP7OXktNt0cX2knvMIdn-99" value="" style="endArrow=none;dashed=1;html=1;dashPattern=1 1;strokeWidth=2;rounded=0;exitX=1;exitY=0.5;exitDx=0;exitDy=0;entryX=0;entryY=0.5;entryDx=0;entryDy=0;" edge="1" parent="1" source="JP7OXktNt0cX2knvMIdn-41" target="JP7OXktNt0cX2knvMIdn-67">
          <mxGeometry width="50" height="50" relative="1" as="geometry">
            <mxPoint x="702.5" y="404" as="sourcePoint" />
            <mxPoint x="803.5" y="390" as="targetPoint" />
          </mxGeometry>
        </mxCell>
        <mxCell id="JP7OXktNt0cX2knvMIdn-100" value="" style="ellipse;whiteSpace=wrap;html=1;fillColor=#8BABF1;strokeColor=#8BABF1;" vertex="1" parent="1">
          <mxGeometry x="692.5" y="322.5" width="10" height="10" as="geometry" />
        </mxCell>
        <mxCell id="JP7OXktNt0cX2knvMIdn-101" value="" style="ellipse;whiteSpace=wrap;html=1;fillColor=#8BABF1;strokeColor=#8BABF1;" vertex="1" parent="1">
          <mxGeometry x="832.5" y="245" width="10" height="10" as="geometry" />
        </mxCell>
      </root>
    </mxGraphModel>
  </diagram>
</mxfile>
